<svg width="10" height="10" viewBox="0 0 10 10" fill="none" xmlns="http://www.w3.org/2000/svg">
<path d="M8.04453 4.29894C7.95998 4.49682 7.75432 4.60992 7.54652 4.57282L7.02363 4.47946C6.30815 4.35167 5.76612 3.74703 5.70285 3.00615L5.62909 2.14304C5.61784 2.01212 5.43699 1.99646 5.40446 2.12358L5.1188 3.24258C4.96016 3.86403 4.46201 4.33361 3.84407 4.44398L2.77631 4.63464C2.65006 4.65728 2.65006 4.84272 2.77631 4.86536L3.64491 5.02054C4.36039 5.14833 4.90242 5.75297 4.96569 6.49385L5.03945 7.35696C5.0507 7.48788 5.23155 7.50354 5.26409 7.37642L5.54974 6.25742C5.70838 5.63597 6.20653 5.16639 6.82447 5.05602L7.49152 4.93679C7.71796 4.89631 7.93859 5.03407 8.00716 5.25873L8.90354 8.19571C8.9496 8.34663 8.8395 8.5 8.68508 8.5H1.45777C1.19935 8.5 0.992156 8.2811 1.00023 8.01661L1.2005 1.45411C1.20822 1.20105 1.41079 1 1.65805 1H9.1042C9.26926 1 9.38005 1.17348 9.31388 1.32833L8.04453 4.29894Z" fill="#00C4BD"/>
</svg>
