<svg width="11" height="10" viewBox="0 0 11 10" fill="none" xmlns="http://www.w3.org/2000/svg">
<path d="M5.70025 0C8.46168 6.44277e-08 10.7003 2.23858 10.7003 5C10.7003 7.76142 8.46168 10 5.70025 10C3.10763 9.99997 0.976529 8.02661 0.72564 5.5H0.299858C0.052927 5.49965 -0.0876371 5.21718 0.0606 5.01953L0.960015 3.82031C1.08002 3.66031 1.32048 3.66031 1.44048 3.82031L2.3399 5.01953C2.48816 5.21722 2.34765 5.49975 2.10064 5.5H1.73248C1.97859 7.47306 3.66052 8.99997 5.70025 9C7.9094 9 9.70026 7.20914 9.70026 5C9.70026 2.79086 7.9094 1 5.70025 1C5.07364 1.00001 4.48187 1.14358 3.95514 1.39941C3.70683 1.52001 3.40691 1.41717 3.28619 1.16895C3.16557 0.920625 3.26939 0.620717 3.51764 0.5C4.17766 0.179357 4.91886 1.00502e-05 5.70025 0ZM5.20025 2.5C5.4764 2.5 5.70025 2.72386 5.70025 3V5H7.70026C7.9764 5 8.20026 5.22386 8.20026 5.5C8.20026 5.77614 7.9764 6 7.70026 6H5.20025C4.92414 5.99996 4.70025 5.77612 4.70025 5.5V3C4.70025 2.72388 4.92414 2.50004 5.20025 2.5Z" fill="#007EFF"/>
</svg>
